<svg width="420" height="353" viewBox="0 0 420 353" fill="none" xmlns="http://www.w3.org/2000/svg">
<g filter="url(#filter0_d_3_13)">
<path d="M87.16 115.266C87.16 115.266 62.2905 41.6784 149.036 50.6596C235.781 59.6409 194.335 27.0699 227.114 6.85743C259.893 -13.3551 356.474 49.5277 316.067 110.179C275.661 170.83 380.641 115.349 402.54 206.557C416.053 262.842 382.526 304.27 354.866 327.753" stroke="#CCDDE2" stroke-width="5.47" stroke-miterlimit="10"/>
<path d="M363.325 257.434C356.806 219.684 333.725 185.902 296.224 173.812C286.631 170.736 276.822 168.381 266.878 166.766V166.817C266.36 169.951 265.132 172.925 263.288 175.512C259.38 180.866 253.993 185.265 247.756 187.556C241.389 189.912 233.503 190.217 227.594 186.512C224.037 184.285 220.586 180.363 219.962 176.131C219.25 171.363 221.681 166.849 225.099 163.699C196.123 163.934 168.865 168.702 147.021 174.131C147.779 177.3 148.827 180.393 150.154 183.371C152.01 187.521 154.634 191.283 157.888 194.459C161.945 190.439 165.498 185.94 168.467 181.061C171.308 181.99 173.813 183.735 175.67 186.076C177.527 188.418 178.655 191.254 178.913 194.232V194.385C180.059 205.2 169.645 213.327 160.895 218.325C150.787 224.137 139.518 228.489 128.449 232.107C123.884 233.604 117.952 234.879 113.134 233.317C112.615 233.152 112.108 232.95 111.618 232.712C106.813 230.356 103.598 225.417 101.089 220.903C93.9422 208.083 89.2944 194.107 86.1436 179.762C64.2771 182.557 61.7731 167.75 60.4749 164.119L41.7685 216.413C40.7872 220.172 40.6814 224.106 41.458 227.912C42.2351 231.718 43.8748 235.296 46.2508 238.37C48.6264 241.443 51.6756 243.931 55.1633 245.643C58.6514 247.354 62.485 248.242 66.37 248.24H143.81L178.987 338.469L188.957 364.077H245.903C241.283 364.077 238.756 362.95 236.922 361.111C235.028 359.216 233.961 356.648 233.956 353.969C233.956 348.425 238.507 343.879 245.903 343.879H246.425C245.866 343.879 245.33 343.828 244.771 343.777C245.118 343.74 245.462 343.682 245.802 343.606C245.435 343.597 245.07 343.569 244.707 343.523C248.043 343.129 251.134 341.575 253.441 339.132C255.747 336.69 257.121 333.515 257.324 330.162C257.333 329.988 257.333 329.813 257.324 329.64V329.372C257.244 325.934 255.93 322.64 253.622 320.091C251.314 317.541 248.166 315.908 244.753 315.489C245.141 315.456 245.51 315.424 245.885 315.424C245.547 315.341 245.173 315.29 244.822 315.239C245.377 315.188 245.936 315.151 246.471 315.151L288.135 315.373L295.799 315.406H304.896C305.316 315.406 305.741 315.406 306.143 315.456L319.657 315.526L328.684 315.576C332.458 315.608 336.064 317.132 338.716 319.817C341.368 322.5 342.849 326.125 342.835 329.898C342.831 332.032 342.336 334.135 341.389 336.048C345.263 335.552 348.854 333.761 351.581 330.966C358.081 324.327 360.881 314.389 362.817 305.556C366.24 289.82 366.037 273.239 363.325 257.434ZM258.063 258.496C250.214 270.578 236.848 269.492 236.848 269.492C236.848 269.492 235.739 270.573 233.152 265.972C230.565 261.37 223.196 258.224 223.196 258.224C222.609 262.844 221.394 269.866 209.336 260.765C197.278 251.663 200.914 238.395 201.944 231.386C202.974 224.378 207.081 222.054 207.081 222.054L211.932 219.494C211.932 219.494 197.901 215.886 197.227 215.752C196.552 215.618 184.055 205.154 196.737 202.391C209.419 199.628 229.188 210.615 233.009 212.786C236.83 214.957 259.158 233.844 259.158 233.844C259.158 233.844 265.954 246.434 258.063 258.496Z" fill="#353642"/>
<path d="M86.1251 179.771C86.1251 179.771 96.7003 178.486 100.66 170.937L97.2085 190.3C97.2085 190.3 139.278 175.978 146.994 174.13C146.994 174.13 149.479 190.156 159.375 194.458L169.585 181.475C169.585 181.475 182.387 184.709 178.885 202.155C175.384 219.6 126.947 234.18 118.733 233.843C110.519 233.506 101.676 228.452 92.6208 201.291L86.1251 179.771Z" fill="#353642"/>
<path d="M103.353 136.639C106.033 141 108.726 145.352 111.507 149.649C113.221 152.296 116.345 156.071 113.023 158.838C111.942 159.667 110.636 160.15 109.276 160.224C107.141 160.413 104.901 159.9 103.603 158.066L97.1346 147.348C95.8456 145.21 93.7985 143.637 91.4016 142.94C89.0043 142.243 86.4328 142.474 84.1986 143.587" stroke="black" stroke-width="5.47" stroke-miterlimit="10"/>
<path d="M127.816 150.756C129.507 154.776 128.361 157.367 126.384 158.67C123.15 160.791 118.821 159.774 116.529 156.679L103.376 136.66" stroke="black" stroke-width="5.47" stroke-miterlimit="10"/>
<path d="M114.487 130.818C119.274 136.639 125.312 147.45 128.652 151.963C131.992 156.477 137.158 153.756 137.158 153.756C141.353 151.497 140.641 147.75 138.807 143.199C134.289 132.028 127.839 124.599 120.646 119.73C98.3543 104.65 75.4853 115.775 68.68 141.804L41.7685 216.412C40.7872 220.172 40.6814 224.106 41.458 227.912C42.2351 231.718 43.8748 235.296 46.2508 238.37C48.6264 241.443 51.6756 243.931 55.1633 245.643C58.6514 247.353 62.485 248.242 66.37 248.239H143.81L188.971 364.081" stroke="black" stroke-width="5.47" stroke-miterlimit="10"/>
<path d="M142.138 138.075C147.682 136.153 147.428 127.311 139.56 124.326C130.87 121.027 115.439 116.361 111.563 115.197C111.539 115.178 111.51 115.167 111.48 115.165C111.207 115.081 111.018 115.012 110.87 114.98L110.653 114.91" stroke="black" stroke-width="5.47" stroke-miterlimit="10"/>
<path d="M224.051 226.488C219.2 220.657 205.922 217.354 197.255 215.755C195.798 215.482 194.47 214.742 193.469 213.648C192.47 212.554 191.852 211.165 191.711 209.689C191.61 208.694 191.725 207.689 192.048 206.742C192.564 205.288 193.554 204.05 194.859 203.225C196.163 202.401 197.706 202.039 199.241 202.196C214.025 203.693 229.271 208.345 240.549 218.366C240.549 218.366 295.217 260.084 301.745 264.145C304.439 265.781 306.952 263.85 305.127 261.281L304.554 260.301C301.341 254.787 297.538 249.638 293.212 244.945" stroke="black" stroke-width="5.47" stroke-miterlimit="10"/>
<path d="M225.062 163.693C156.308 164.266 97.2085 190.295 97.2085 190.295L103.108 157.225" stroke="black" stroke-width="5.47" stroke-miterlimit="10"/>
<path d="M331.849 343.674C331.849 343.674 324.36 341.978 322.369 347.975C320.378 353.972 318.299 363.512 332.616 364.076C346.933 364.639 338.525 361.826 337.698 357.192C336.871 352.558 331.849 343.674 331.849 343.674Z" fill="#353642"/>
<path d="M217.444 234.098C217.444 234.098 209.364 227.972 202.087 234.181C201.781 234.451 201.513 234.762 201.292 235.105" stroke="black" stroke-width="5.47" stroke-miterlimit="10"/>
<g opacity="0.77">
<path opacity="0.77" d="M116.502 156.657C118.812 159.757 123.136 160.769 126.356 158.644C128.31 157.35 129.456 154.772 127.807 150.79C128.107 151.229 128.38 151.617 128.648 151.973C131.983 156.505 137.153 153.774 137.153 153.774C141.348 151.515 140.641 147.768 138.807 143.213C137.012 138.701 134.657 134.433 131.798 130.508C133.67 128.757 135.892 126.988 138.234 127.764C140.761 128.605 141.468 131.774 141.755 134.417C141.889 135.645 142.023 136.861 142.156 138.089L144.18 156.181C144.855 162.187 145.529 168.281 146.994 174.144C147.751 177.314 148.799 180.407 150.126 183.384C151.983 187.534 154.606 191.296 157.86 194.472C161.918 190.452 165.47 185.953 168.44 181.074C171.28 182.003 173.785 183.748 175.642 186.09C177.499 188.432 178.627 191.267 178.885 194.246V194.398C180.031 205.213 169.618 213.34 160.867 218.339C150.759 224.151 139.491 228.503 128.421 232.12C123.857 233.617 117.925 234.892 113.106 233.331C112.587 233.165 112.081 232.963 111.591 232.726C106.786 230.369 103.57 225.431 101.062 220.917C89.0496 199.318 84.06 174.518 81.4312 149.958C86.6888 149.233 91.9278 148.424 97.1022 147.311C97.1022 147.311 97.1022 147.348 97.1346 147.362L103.099 157.253L103.589 158.076C104.882 159.924 107.123 160.418 109.262 160.233C110.622 160.166 111.929 159.682 113.004 158.847C116.321 156.075 113.208 152.314 111.489 149.667" fill="white"/>
<path opacity="0.77" d="M116.502 156.657C118.812 159.757 123.136 160.769 126.356 158.644C128.31 157.35 129.456 154.772 127.807 150.79C128.107 151.229 128.38 151.617 128.648 151.973C131.983 156.505 137.153 153.774 137.153 153.774C141.348 151.515 140.641 147.768 138.807 143.213C137.012 138.701 134.657 134.433 131.798 130.508C133.67 128.757 135.892 126.988 138.234 127.764C140.761 128.605 141.468 131.774 141.755 134.417C141.889 135.645 142.023 136.861 142.156 138.089L144.18 156.181C144.855 162.187 145.529 168.281 146.994 174.144C147.751 177.314 148.799 180.407 150.126 183.384C151.983 187.534 154.606 191.296 157.86 194.472C161.918 190.452 165.47 185.953 168.44 181.074C171.28 182.003 173.785 183.748 175.642 186.09C177.499 188.432 178.627 191.267 178.885 194.246V194.398C180.031 205.213 169.618 213.34 160.867 218.339C150.759 224.151 139.491 228.503 128.421 232.12C123.857 233.617 117.925 234.892 113.106 233.331C112.587 233.165 112.081 232.963 111.591 232.726C106.786 230.369 103.57 225.431 101.062 220.917C89.0496 199.318 84.06 174.518 81.4312 149.958C86.6888 149.233 91.9278 148.424 97.1022 147.311C97.1022 147.311 97.1022 147.348 97.1346 147.362L103.099 157.253L103.589 158.076C104.882 159.924 107.123 160.418 109.262 160.233C110.622 160.166 111.929 159.682 113.004 158.847C116.321 156.075 113.208 152.314 111.489 149.667" fill="#3FBDF1"/>
<path opacity="0.77" d="M117.92 158.122C119.967 160.894 123.464 160.543 126.356 158.644C128.102 157.489 129.535 157.826 128.061 154.264C128.333 154.652 128.37 153.34 128.611 153.631C131.591 157.678 128.648 151.959 128.648 151.959C132.806 157.212 141.856 152.264 140.198 148.203C138.442 143.827 136.594 137.359 134.252 134.125C136.1 132.379 135.744 132.638 138.096 134.028C138.727 134.434 139.256 134.982 139.64 135.627C140.024 136.272 140.253 136.998 140.308 137.748C140.498 139.508 140.687 141.194 140.877 142.913L142.679 159.083C143.284 164.456 143.884 169.884 145.192 175.114C145.868 177.942 146.805 180.701 147.992 183.356C149.646 187.011 154.958 193.095 157.86 195.881C161.468 192.301 165.792 185.717 168.44 181.342C173.522 182.903 173.3 187.764 173.66 193.072V193.211C174.686 202.862 165.39 210.111 157.601 214.578C148.574 219.766 138.516 223.647 128.634 226.881C124.559 228.221 119.264 229.376 114.963 227.962C114.499 227.816 114.047 227.635 113.609 227.422C109.322 225.315 106.448 220.912 104.208 216.879C94.3995 199.263 89.8488 179.263 87.3448 159.212C87.1609 157.712 87.567 156.199 88.4772 154.992C89.3873 153.785 90.7303 152.979 92.2235 152.744C95.0371 152.282 97.8414 151.82 100.627 151.201L100.706 151.238L106.028 160.067C107.188 161.707 107.377 160.423 109.285 160.256C110.491 160.15 112.829 159.914 113.762 159.134C116.723 156.666 115.051 155.645 113.517 153.285" fill="#3FBDF1"/>
</g>
<path d="M216.469 243.015C216.469 243.015 201.126 237.97 200.895 246.452" stroke="black" stroke-width="5.47" stroke-miterlimit="10"/>
<path opacity="0.54" d="M79.1304 329.421L49.0404 252.331C48.6675 250.84 48.6398 249.283 48.9586 247.778C49.2778 246.275 49.9357 244.863 50.8819 243.651C51.8285 242.439 53.0385 241.459 54.4208 240.785C55.8027 240.111 57.3203 239.76 58.8579 239.76H178.377C181.061 239.76 183.667 240.663 185.775 242.324C187.882 243.985 189.37 246.308 189.997 248.917L222.937 325.988C223.293 327.475 223.308 329.023 222.98 330.516C222.651 332.009 221.989 333.409 221.043 334.609C220.096 335.81 218.89 336.78 217.514 337.448C216.139 338.115 214.63 338.462 213.101 338.462H90.722C88.0581 338.464 85.4705 337.575 83.3702 335.936C81.27 334.298 79.7777 332.005 79.1304 329.421Z" fill="white"/>
<path d="M221.463 256.018C221.463 256.018 223.954 258.3 223.006 261.562C222.304 263.978 219.902 265.503 217.523 264.676C209.946 262.057 203.122 257.607 201.459 250.045C200.673 246.215 200.503 242.285 200.955 238.402C201.32 234.803 201.851 230.918 203.062 227.494C204.91 222.237 210.569 218.573 216.063 221.105" stroke="black" stroke-width="5.47" stroke-miterlimit="10"/>
<path d="M79.1304 329.421L49.0404 252.331C48.6675 250.84 48.6398 249.283 48.9586 247.778C49.2778 246.275 49.9357 244.863 50.8819 243.651C51.8285 242.439 53.0385 241.459 54.4208 240.785C55.8027 240.111 57.3203 239.76 58.8579 239.76H178.377C181.061 239.76 183.667 240.663 185.775 242.324C187.882 243.985 189.37 246.308 189.997 248.917L222.937 325.988C223.293 327.475 223.308 329.023 222.98 330.516C222.651 332.009 221.989 333.409 221.043 334.609C220.096 335.81 218.89 336.78 217.514 337.448C216.139 338.115 214.63 338.462 213.101 338.462H90.722C88.0581 338.464 85.4705 337.575 83.3702 335.936C81.27 334.298 79.7777 332.005 79.1304 329.421Z" fill="#3FBDF1"/>
<path d="M79.1304 329.421L49.0404 252.331C48.6675 250.84 48.6398 249.283 48.9586 247.778C49.2778 246.275 49.9357 244.863 50.8819 243.651C51.8285 242.439 53.0385 241.459 54.4208 240.785C55.8027 240.111 57.3203 239.76 58.8579 239.76H178.377C181.061 239.76 183.667 240.663 185.775 242.324C187.882 243.985 189.37 246.308 189.997 248.917L222.937 325.988C223.293 327.475 223.308 329.023 222.98 330.516C222.651 332.009 221.989 333.409 221.043 334.609C220.096 335.81 218.89 336.78 217.514 337.448C216.139 338.115 214.63 338.462 213.101 338.462H90.722C88.0581 338.464 85.4705 337.575 83.3702 335.936C81.27 334.298 79.7777 332.005 79.1304 329.421Z" stroke="black" stroke-width="5.47" stroke-linecap="square" stroke-linejoin="round"/>
<path d="M83.5333 326.316L55.7717 255.168C55.4285 253.792 55.4035 252.355 55.6983 250.968C55.993 249.581 56.6001 248.278 57.4737 247.161C58.3469 246.043 59.4636 245.139 60.7382 244.517C62.0133 243.895 63.4132 243.572 64.8315 243.572H175.092C177.568 243.571 179.972 244.404 181.916 245.936C183.861 247.468 185.233 249.61 185.811 252.017L216.206 323.124C216.534 324.496 216.547 325.924 216.244 327.302C215.941 328.68 215.329 329.971 214.455 331.078C213.582 332.185 212.469 333.081 211.2 333.696C209.931 334.312 208.538 334.632 207.128 334.632H94.224C91.7703 334.634 89.3864 333.817 87.4501 332.311C85.5134 330.804 84.1353 328.695 83.5333 326.316Z" fill="#3FBDF1"/>
<path d="M319.509 315.155L340.65 364.076" stroke="black" stroke-width="5.47" stroke-miterlimit="10"/>
<path d="M223.159 143.277C219.731 146.663 214.612 146.659 211.697 143.526" stroke="black" stroke-width="5.47" stroke-miterlimit="10"/>
<path d="M131.798 130.493C133.67 128.742 135.892 126.973 138.234 127.749C140.761 128.59 141.468 131.759 141.755 134.402C142.564 141.664 143.373 148.92 144.18 156.167C145.206 165.407 146.287 174.868 150.126 183.36C151.983 187.51 154.606 191.272 157.86 194.448" stroke="black" stroke-width="5.47" stroke-miterlimit="10"/>
<path d="M178.885 194.392V194.24C178.627 191.262 177.499 188.426 175.642 186.084C173.785 183.743 171.28 181.998 168.44 181.068C165.47 185.948 161.918 190.447 157.86 194.466C147.221 205.045 133.555 212.051 118.756 214.513C119.468 217.345 120.932 219.923 121.944 222.648C122.956 225.374 123.459 228.53 122.23 231.158C120.678 234.513 116.224 234.074 113.129 233.33C113.097 233.33 113.078 233.33 113.046 233.33" stroke="black" stroke-width="5.47" stroke-miterlimit="10"/>
<path d="M97.1115 147.306C91.9371 148.42 86.698 149.228 81.4404 149.954C84.0692 174.514 89.0403 199.314 101.071 220.912C103.579 225.426 106.795 230.365 111.6 232.721C112.09 232.959 112.596 233.161 113.115 233.326C117.934 234.911 123.866 233.613 128.43 232.116C139.518 228.494 150.768 224.146 160.877 218.334C169.604 213.331 180.017 205.209 178.895 194.393C178.786 193.202 178.543 192.027 178.169 190.891" stroke="black" stroke-width="5.47" stroke-miterlimit="10"/>
<path d="M183.635 98.3145C184.41 101.548 186.18 104.455 188.696 106.629C191.211 108.802 194.345 110.131 197.657 110.428C197.931 109.095 198.528 107.848 199.394 106.797C203.09 102.441 204.665 110.613 216.488 104.746C232.87 96.5963 239.089 101.272 239.089 101.272C239.634 101.678 239.551 105.429 239.643 106.113C240.105 110.008 240.521 113.884 240.978 117.774C241.255 120.149 241.528 122.505 241.787 124.861C242.01 124.46 242.257 124.073 242.526 123.701C244.018 118.421 246.684 112.184 252.431 114.868C253.595 115.436 254.608 116.27 255.388 117.303C259.2 122.311 256.312 127.148 252.325 130.728C251.326 131.84 250.209 132.838 248.994 133.709C249.65 135.067 252.33 140.459 252.33 140.477C252.607 141.022 261.972 130.423 262.669 129.268C263.711 126.439 264.27 123.455 264.323 120.44C264.476 108.045 259.431 93.6159 249.391 86.5058C246.901 84.7455 247.696 83.05 247.543 80.6568C247.533 80.5275 247.483 80.4046 247.401 80.3039C247.319 80.2031 247.208 80.1297 247.084 80.0932C246.959 80.0567 246.827 80.059 246.703 80.0992C246.58 80.1399 246.472 80.2165 246.393 80.32C243.247 83.9421 235.457 83.5818 235.457 83.5818C208.421 76.8088 199.334 88.8301 193.877 90.9738C191.651 91.8169 189.201 91.8576 186.947 91.0893C186.815 91.8349 186.481 92.5302 185.982 93.1003C185.482 93.6704 184.837 94.0932 184.115 94.3233L184.254 95.5748C184.372 96.5325 184.153 97.5009 183.635 98.3145Z" fill="#3FBDF1"/>
<path d="M197.675 110.448C194.364 110.151 191.23 108.822 188.714 106.649C186.198 104.476 184.428 101.567 183.653 98.3348C183.35 97.0948 183.158 95.8299 183.08 94.5557L183.293 94.5326C183.584 94.5109 183.87 94.4485 184.143 94.3478C184.865 94.1177 185.51 93.695 186.01 93.1249C186.508 92.5552 186.843 91.8594 186.975 91.1138C187.06 90.7003 187.077 90.2757 187.026 89.8571L186.333 83.7402C186.333 83.7402 191.221 87.3762 196.645 85.251C202.069 83.1258 211.175 71.1046 238.225 77.859C238.225 77.859 244.332 78.2194 247.465 74.5973C247.544 74.4938 247.652 74.4171 247.775 74.3769C247.899 74.3362 248.031 74.3344 248.156 74.3709C248.28 74.4074 248.391 74.4808 248.473 74.5811C248.555 74.6818 248.605 74.8052 248.615 74.9345C248.777 77.3323 249.664 79.0278 252.159 80.7834C262.198 87.8982 267.243 102.322 267.086 114.717C267.04 119.859 265.33 124.937 262.692 129.293C261.995 130.448 252.63 141.047 252.353 140.502C252.353 140.502 249.673 135.092 249.017 133.733L248.86 133.433L249.16 133.234C250.276 132.477 251.34 131.648 252.348 130.753C256.331 127.173 259.223 122.336 255.411 117.328C254.631 116.295 253.618 115.46 252.454 114.893C246.689 112.209 244.041 118.446 242.549 123.726C242.259 124.735 242.081 125.773 242.018 126.822C241.948 126.175 241.879 125.551 241.81 124.904C241.551 122.548 241.279 120.192 241.001 117.817C240.539 113.927 240.105 110.051 239.666 106.156C239.597 105.491 239.666 101.721 239.112 101.315C239.112 101.315 232.889 96.6393 216.511 104.789C204.688 110.656 203.113 102.479 199.417 106.84C198.551 107.891 197.955 109.138 197.68 110.472C197.595 110.9 197.541 111.334 197.518 111.77C197.509 111.826 197.509 111.884 197.518 111.941C197.463 112.897 197.444 113.849 197.421 114.782C197.333 123.786 198.322 133.193 201.856 141.555C206.153 151.691 217.523 161.689 229.345 156.963C233.041 155.48 236.354 153.091 239.384 150.555" stroke="black" stroke-width="5.47" stroke-miterlimit="10"/>
<path d="M205.766 132.409C206.941 132.016 207.509 130.543 207.033 129.121C206.557 127.698 205.218 126.863 204.041 127.257C202.866 127.65 202.298 129.123 202.774 130.545C203.25 131.968 204.59 132.803 205.766 132.409Z" fill="black"/>
<path d="M223.357 131.846C224.532 131.453 225.1 129.98 224.624 128.557C224.148 127.135 222.809 126.3 221.632 126.694C220.457 127.087 219.889 128.56 220.365 129.982C220.841 131.405 222.18 132.24 223.357 131.846Z" fill="black"/>
<path d="M216.631 134.893C216.631 134.893 210.777 138.215 210.422 134.768C210.311 133.706 208.879 123.297 208.879 123.297C208.879 123.297 204.148 118.284 196.899 121.989" stroke="black" stroke-width="5.47" stroke-miterlimit="10"/>
<path d="M215.314 120.38C215.314 120.38 224.767 115.658 231.022 122.464" stroke="black" stroke-width="5.47" stroke-miterlimit="10"/>
<path d="M223.981 158.122L225.067 163.693C221.644 166.849 219.223 171.372 219.93 176.135C220.558 180.358 224.014 184.289 227.557 186.502C233.48 190.198 241.357 189.907 247.733 187.556C253.965 185.246 259.357 180.861 263.265 175.511C265.106 172.925 266.332 169.953 266.85 166.821V166.766" stroke="black" stroke-width="5.47" stroke-miterlimit="10"/>
<path d="M225.067 163.693L227.183 173.755" stroke="black" stroke-width="5.47" stroke-miterlimit="10"/>
<path d="M254.991 138.076L258.188 159.304C258.503 161.383 259.553 163.279 261.148 164.648C262.743 166.017 264.776 166.769 266.878 166.766C276.828 168.378 286.643 170.732 296.243 173.807C333.743 185.902 356.825 219.683 363.344 257.429C366.056 273.234 366.259 289.81 362.854 305.527C360.918 314.375 358.118 324.312 351.618 330.937C343.177 339.577 330.223 336.02 320.248 332.116C289.28 320.071 263.524 298.644 241.283 274.111C229.391 260.991 214.025 250.476 214.025 250.476" stroke="black" stroke-width="5.47" stroke-miterlimit="10"/>
<path d="M93.7666 310.393C90.2924 310.36 87.2663 307.556 86.4855 303.652C84.9424 295.974 84.5358 284.1 95.7948 281.509C109.863 278.275 120.683 293.595 125.986 303.278C127.77 306.512 125.751 310.67 122.429 310.67L93.7666 310.393Z" fill="#D7E8F0"/>
<path d="M98.4111 274.989C101.397 273.001 101.444 267.82 98.5132 263.417C95.5832 259.013 90.7867 257.054 87.7999 259.042C84.813 261.03 84.7673 266.21 87.6973 270.614C90.6278 275.017 95.4242 276.976 98.4111 274.989Z" fill="#D7E8F0"/>
<path d="M329.604 343.928C329.387 343.96 329.142 343.992 328.929 344.043H328.846L295.984 343.872L246.675 343.618C246.485 343.618 246.301 343.618 246.116 343.618C245.749 343.609 245.384 343.582 245.021 343.535C248.362 343.147 251.458 341.593 253.766 339.146C256.074 336.7 257.445 333.518 257.638 330.16C257.647 329.986 257.647 329.812 257.638 329.638V329.37C257.625 326.085 256.48 322.904 254.396 320.364C252.313 317.824 249.418 316.078 246.199 315.422C245.862 315.339 245.492 315.288 245.136 315.237C245.695 315.187 246.25 315.15 246.79 315.15L288.449 315.371L296.118 315.404L306.462 315.454C310.004 315.778 313.298 317.411 315.7 320.034C318.101 322.657 319.438 326.081 319.449 329.638C319.449 330.309 319.399 330.98 319.297 331.643C318.804 335.029 317.113 338.126 314.53 340.37C311.947 342.614 308.646 343.857 305.224 343.872H330.255C328.814 343.872 329.216 343.872 329.604 343.928Z" fill="white"/>
<path d="M262.946 361.111C263.885 362.055 265.002 362.803 266.232 363.313C267.462 363.822 268.781 364.081 270.112 364.077H245.912C241.292 364.077 238.77 362.95 236.931 361.111C235.042 359.213 233.978 356.646 233.97 353.969C233.97 348.425 238.516 343.879 245.912 343.879H270.112C268.114 343.875 266.16 344.465 264.498 345.574C262.836 346.682 261.54 348.259 260.775 350.105C260.01 351.951 259.81 353.982 260.201 355.941C260.592 357.901 261.555 359.7 262.969 361.111H262.946Z" fill="#D7E8F0"/>
<path d="M342.868 329.892C342.862 332.026 342.365 334.13 341.417 336.041C340.74 337.486 339.811 338.799 338.673 339.917C336.797 341.776 334.44 343.077 331.868 343.673C330.807 343.918 329.722 344.043 328.634 344.043C328.855 343.992 329.096 343.96 329.308 343.928C328.92 343.891 328.518 343.877 329.964 343.877H304.928C308.352 343.864 311.657 342.621 314.242 340.376C316.826 338.13 318.519 335.031 319.01 331.643C319.112 330.98 319.163 330.309 319.163 329.638C319.152 326.081 317.814 322.656 315.412 320.032C313.009 317.409 309.714 315.777 306.171 315.454L319.685 315.524L328.712 315.575C332.485 315.606 336.091 317.13 338.743 319.813C341.396 322.496 342.879 326.119 342.868 329.892Z" fill="#3FBDF1"/>
<path d="M342.868 329.888C342.84 333.663 341.317 337.273 338.632 339.927C335.948 342.581 332.321 344.063 328.546 344.049L246.347 343.624C245.797 343.624 245.247 343.582 244.693 343.527C248.158 343.134 251.358 341.484 253.688 338.889C256.017 336.294 257.314 332.935 257.333 329.448C257.351 325.961 256.089 322.589 253.787 319.97C251.484 317.351 248.301 315.667 244.841 315.238C245.39 315.181 245.942 315.153 246.495 315.155L328.694 315.58C332.468 315.606 336.079 317.126 338.735 319.807C341.392 322.489 342.877 326.114 342.868 329.888Z" stroke="black" stroke-width="5.47" stroke-linecap="square" stroke-linejoin="round"/>
<path d="M319.153 329.634C319.146 333.408 317.643 337.025 314.975 339.694C312.306 342.363 308.689 343.865 304.914 343.873H246.43C245.877 343.869 245.325 343.838 244.776 343.78C248.238 343.369 251.43 341.702 253.746 339.095C256.061 336.488 257.34 333.123 257.34 329.636C257.34 326.149 256.061 322.784 253.746 320.177C251.43 317.57 248.238 315.903 244.776 315.492C245.326 315.441 245.88 315.404 246.43 315.404H304.914C308.687 315.412 312.302 316.914 314.97 319.581C317.638 322.247 319.142 325.862 319.153 329.634Z" stroke="black" stroke-width="5.47" stroke-linecap="square" stroke-linejoin="round"/>
<path d="M233.97 353.971C233.969 355.296 234.23 356.609 234.738 357.833C235.245 359.057 235.989 360.169 236.927 361.105C238.775 362.953 241.283 364.075 245.908 364.075H329.959C328.513 364.075 328.906 364.048 329.299 364.011C326.84 363.721 324.572 362.539 322.926 360.688C321.281 358.838 320.372 356.448 320.372 353.971C320.372 351.495 321.281 349.105 322.926 347.254C324.572 345.404 326.84 344.222 329.299 343.932C328.906 343.895 328.513 343.867 329.959 343.867H245.908C238.507 343.872 233.97 348.418 233.97 353.971Z" stroke="black" stroke-width="5.47" stroke-linecap="square" stroke-linejoin="round"/>
<path d="M259.98 353.971C259.986 356.65 261.053 359.216 262.946 361.109C264.84 363.003 267.407 364.069 270.084 364.075H328.125C328.513 364.075 328.906 364.048 329.299 364.011C326.84 363.721 324.572 362.539 322.926 360.688C321.281 358.838 320.372 356.448 320.372 353.971C320.372 351.495 321.281 349.105 322.926 347.254C324.572 345.404 326.84 344.222 329.299 343.932C328.906 343.895 328.513 343.867 328.125 343.867H270.084C267.407 343.875 264.841 344.942 262.948 346.835C261.054 348.728 259.988 351.294 259.98 353.971Z" stroke="black" stroke-width="5.47" stroke-linecap="square" stroke-linejoin="round"/>
<path d="M165.894 276.883H139.967C138.78 276.881 137.62 276.534 136.628 275.884C135.635 275.235 134.853 274.311 134.376 273.224C134.193 272.82 134.114 272.375 134.148 271.932C134.181 271.489 134.327 271.062 134.57 270.69C134.814 270.319 135.147 270.015 135.54 269.807C135.933 269.599 136.371 269.493 136.816 269.5H164.379C163.08 271.686 163.741 274.721 165.894 276.883Z" fill="#D7E8F0"/>
<path d="M182.66 274.212C182.659 274.919 182.378 275.596 181.878 276.095C181.378 276.595 180.701 276.877 179.994 276.877H165.894C163.741 274.72 163.08 271.685 164.379 269.485H176.83C178.015 269.486 179.174 269.83 180.167 270.476C181.16 271.122 181.944 272.043 182.424 273.126C182.574 273.469 182.654 273.838 182.66 274.212Z" fill="#3FBDF1"/>
<path d="M176.174 276.883C176.101 277.023 176.016 277.158 175.919 277.285C174.071 279.812 170.057 280.057 166.938 277.774C166.569 277.502 166.221 277.204 165.894 276.883C163.741 274.725 163.08 271.69 164.379 269.491C164.452 269.35 164.537 269.215 164.633 269.089C166.481 266.543 170.477 266.317 173.596 268.58C173.971 268.861 174.325 269.17 174.654 269.504C176.788 271.653 177.453 274.67 176.174 276.883Z" fill="white"/>
<path d="M189.179 290.489C189.174 291.197 188.89 291.874 188.387 292.372C187.886 292.871 187.207 293.15 186.499 293.15H159.292C160.604 290.942 159.948 287.93 157.791 285.758H183.348C184.535 285.759 185.696 286.105 186.69 286.753C187.683 287.402 188.466 288.326 188.943 289.413C189.096 289.752 189.176 290.118 189.179 290.489Z" fill="#3FBDF1"/>
<path d="M159.292 293.149H146.49C145.305 293.15 144.145 292.806 143.152 292.16C142.158 291.514 141.374 290.592 140.895 289.509C140.744 289.169 140.664 288.804 140.66 288.432C140.659 288.083 140.728 287.736 140.861 287.413C140.995 287.09 141.19 286.797 141.438 286.549C141.685 286.302 141.979 286.106 142.302 285.972C142.625 285.839 142.971 285.771 143.321 285.771H157.791C159.948 287.929 160.618 290.941 159.292 293.149Z" fill="#D7E8F0"/>
<path d="M159.292 293.15C159.232 293.295 159.153 293.431 159.056 293.556C157.208 296.097 153.208 296.328 150.094 294.06C149.717 293.779 149.362 293.47 149.031 293.136C146.892 290.978 146.236 287.966 147.516 285.744C147.59 285.601 147.675 285.466 147.77 285.337C149.618 282.81 153.633 282.565 156.746 284.852C157.117 285.121 157.466 285.419 157.791 285.744C159.948 287.929 160.618 290.941 159.292 293.15Z" fill="white"/>
<path d="M168.356 309.307H152.066C150.882 309.305 149.723 308.961 148.73 308.315C147.737 307.668 146.953 306.749 146.472 305.666C146.288 305.26 146.21 304.815 146.244 304.372C146.279 303.928 146.424 303.5 146.668 303.127C146.912 302.755 147.245 302.449 147.638 302.24C148.031 302.03 148.47 301.923 148.916 301.928H166.841C165.557 304.141 166.217 307.149 168.356 309.307Z" fill="#3FBDF1"/>
<path d="M194.755 306.664C194.751 307.366 194.469 308.039 193.971 308.535C193.472 309.03 192.797 309.307 192.094 309.306H168.356C166.217 307.149 165.557 304.136 166.841 301.914H188.925C190.111 301.914 191.272 302.26 192.266 302.909C193.259 303.558 194.042 304.482 194.52 305.569C194.672 305.914 194.752 306.286 194.755 306.664Z" fill="#D7E8F0"/>
<path d="M178.636 309.307C178.562 309.449 178.477 309.584 178.382 309.713C176.534 312.254 172.538 312.485 169.419 310.217C169.044 309.935 168.691 309.626 168.361 309.293C166.222 307.135 165.561 304.123 166.846 301.901C166.916 301.758 167 301.622 167.095 301.494C168.943 298.967 172.958 298.75 176.077 301.009C176.447 301.278 176.796 301.576 177.121 301.901C179.274 304.086 179.93 307.117 178.636 309.307Z" fill="white"/>
<path d="M55.5638 162.016L55.9704 162.132L55.8179 162.723C55.7214 162.492 55.6364 162.256 55.5638 162.016Z" fill="#353642"/>
<path d="M127.865 198.978C133.947 197.193 137.142 189.837 135.002 182.549C132.863 175.261 126.199 170.799 120.117 172.584C114.035 174.37 110.84 181.725 112.98 189.014C115.119 196.302 121.784 200.763 127.865 198.978Z" fill="#D7E8F0"/>
</g>
<defs>
<filter id="filter0_d_3_13" x="0" y="0.265167" width="423.8" height="374.546" filterUnits="userSpaceOnUse" color-interpolation-filters="sRGB">
<feFlood flood-opacity="0" result="BackgroundImageFix"/>
<feColorMatrix in="SourceAlpha" type="matrix" values="0 0 0 0 0 0 0 0 0 0 0 0 0 0 0 0 0 0 127 0" result="hardAlpha"/>
<feOffset dy="4"/>
<feGaussianBlur stdDeviation="2"/>
<feComposite in2="hardAlpha" operator="out"/>
<feColorMatrix type="matrix" values="0 0 0 0 0 0 0 0 0 0 0 0 0 0 0 0 0 0 0.25 0"/>
<feBlend mode="normal" in2="BackgroundImageFix" result="effect1_dropShadow_3_13"/>
<feBlend mode="normal" in="SourceGraphic" in2="effect1_dropShadow_3_13" result="shape"/>
</filter>
</defs>
</svg>
